# xmcd
#
# Track frame offsets:
#	150
#	16106
#	26824
#	43494
#	59344
#	73026
#	89374
#	102364
#	111856
#	125440
#	138536
#
# Disc length: 1926 seconds
#
# Revision: 1
# Processed by: cddbd v1.4PL0 Copyright (c) Steve Scherf et al.
# Submitted via: audiograbber 1.81.03
#
DISCID=9e07840b
DTITLE=Adan Sanchez - Siempre Y Para Siempre
DYEAR=2002
DGENRE=Latin
TTITLE0=Necesito Un Amor
TTITLE1=Serenata Huasteca
TTITLE2=Amor De Los Dos
TTITLE3=El Unico
TTITLE4=Entre Norteño Y Banda
TTITLE5=Siempre Y Para Siempre
TTITLE6=La Manzanita
TTITLE7=Cuida Tu Vida
TTITLE8=Ingrato Amor
TTITLE9=Idos De La Mente
TTITLE10=Hidden Track
EXTD=Carlos_Mp3s
EXTT0=
EXTT1=
EXTT2=
EXTT3=
EXTT4=
EXTT5=
EXTT6=
EXTT7=
EXTT8=
EXTT9=
EXTT10=
PLAYORDER=
